<svg width="187.59870605468748px" height="238.407470703125px" xmlns="http://www.w3.org/2000/svg" viewBox="156.20064697265627 -44.2037353515625 187.59870605468748 238.407470703125" style="background:#e00" preserveAspectRatio="xMidYMid"><defs><filter id="editing-lego" x="-100%" y="-100%" width="300%" height="300%"><feFlood flood-color="#000" result="f1"></feFlood><feFlood flood-color="#ff0" result="f2"></feFlood><feMorphology operator="dilate" radius="3" in="SourceAlpha"></feMorphology><feConvolveMatrix order="5,5" divisor="1" result="cm1" kernelMatrix="0 1 1 1 0  1 0 0 0 1  1 0 0 0 1  1 0 0 0 1  0 1 1 1 0"></feConvolveMatrix><feComposite operator="in" in="f1" in2="cm1" result="c1"></feComposite><feMorphology operator="dilate" radius="3"></feMorphology><feConvolveMatrix order="5,5" divisor="1" result="cm2" kernelMatrix="0 1 1 1 0  1 0 0 0 1  1 0 0 0 1  1 0 0 0 1  0 1 1 1 0"></feConvolveMatrix><feComposite operator="in" in="f2" in2="cm2" result="c2"></feComposite><feMerge><feMergeNode in="c2"></feMergeNode><feMergeNode in="c1"></feMergeNode><feMergeNode in="SourceGraphic"></feMergeNode></feMerge></filter></defs><g filter="url(#editing-lego)"><g transform="translate(191.0715627670288, 121.92000198364258)"><path d="M14.08 0L-1.79 0L23.18-91.08L52.03-91.08L58.37-39.05L84.04-91.08L108.19-91.08L110.68-22.91L110.68-22.91Q111.23-9.38 117.85-5.24L117.85-5.24L117.85-5.24Q116.33-2.48 111.92 0.14L111.92 0.14L111.92 0.14Q107.50 2.76 101.64 2.76L101.64 2.76L101.64 2.76Q95.77 2.76 92.32 1.10L92.32 1.10L92.32 1.10Q88.87-0.55 86.94-3.31L86.94-3.31L86.94-3.31Q83.49-8.28 83.49-17.80L83.49-17.80L83.49-60.44L56.30 0L39.19 0L29.53-61.96L14.08 0Z" fill="#fff"></path></g></g><style>text {
  font-size: 64px;
  font-family: Arial Black;
  dominant-baseline: central;
  text-anchor: middle;
}</style></svg>